<?xml version="1.0" encoding="utf-8"?>
<!-- Generator: Adobe Illustrator 27.8.1, SVG Export Plug-In . SVG Version: 6.00 Build 0)  -->
<svg version="1.1" id="Layer_1" xmlns="http://www.w3.org/2000/svg" xmlns:xlink="http://www.w3.org/1999/xlink" x="0px" y="0px"
	 viewBox="0 0 1146 698.4" style="enable-background:new 0 0 1146 698.4;" xml:space="preserve">
<style type="text/css">
	.st0{fill:#AAAAAA;}
</style>
<g>
	<path class="st0" d="M1051.2,0H96C43.2,0,0,43.2,0,96v506.4c0,52.8,43.2,96,96,96h954c52.8,0,96-43.2,96-96V96
		C1147.2,43.2,1104,0,1051.2,0L1051.2,0z M96,602.4V96h954v506.4H96z"/>
	<path class="st0" d="M271.2,225.6c0,33.1-26.9,60-60,60s-60-26.9-60-60s26.9-60,60-60S271.2,192.5,271.2,225.6"/>
	<path class="st0" d="M996,472.8c0,33.1-26.9,60-60,60s-60-26.9-60-60s26.9-60,60-60S996,439.7,996,472.8"/>
	<path class="st0" d="M592.8,378v54c19.2-6,21.6-20.4,21.6-27.6C613.2,392.4,608.4,385.2,592.8,378z"/>
	<path class="st0" d="M541.2,307.2c0,9.6,4.8,15.6,19.2,21.6V282C549.6,286.8,541.2,295.2,541.2,307.2L541.2,307.2z"/>
	<path class="st0" d="M424.8,200.4c-82.8,82.8-82.8,216,0,297.6c82.8,82.8,216,82.8,297.6,0c82.8-82.8,82.8-216,0-297.6
		C640.8,117.6,506.4,117.6,424.8,200.4L424.8,200.4z M592.8,466.8v27.6l-31.2,0v-27.6c-24-3.6-44.4-15.6-57.6-33.6l-4.8-6l21.6-27.6
		l7.2,9.6c6,7.2,16.8,18,33.6,22.8v-64.8c-25.2-8.4-54-20.4-54-60c0-31.2,21.6-55.2,54-60v-27.6h31.2v27.6
		c20.4,3.6,37.2,14.4,50.4,30l4.8,6l-22.8,27.6l-8.4-9.6c-7.2-8.4-15.6-14.4-25.2-18v56.4c24,7.2,56.4,21.6,56.4,64.8
		C648,429.6,633.6,460.8,592.8,466.8L592.8,466.8z"/>
</g>
</svg>
