<?xml version="1.0" encoding="utf-8"?>
<!-- Generator: Adobe Illustrator 27.8.1, SVG Export Plug-In . SVG Version: 6.00 Build 0)  -->
<svg version="1.1" id="Layer_1" xmlns="http://www.w3.org/2000/svg" xmlns:xlink="http://www.w3.org/1999/xlink" x="0px" y="0px"
	 viewBox="0 0 665.4 593.8" style="enable-background:new 0 0 665.4 593.8;" xml:space="preserve">
<style type="text/css">
	.st0{fill:#AAAAAA;}
</style>
<path class="st0" d="M601.6,145.5H350.4L493.1,15.7c3.7-3.4,4-9.1,0.6-12.8c-3.4-3.7-9.1-4-12.8-0.6L332.8,137l-78.2-71
	c-3.7-3.4-9.4-3.1-12.8,0.6c-3.4,3.7-3.1,9.4,0.6,12.8l72.8,66.1H63.8C28.6,145.4,0,174,0,209.2v320.9c0,35.2,28.6,63.8,63.8,63.8
	h537.8c35.2,0,63.8-28.6,63.8-63.8V209.2C665.4,174,636.8,145.5,601.6,145.5L601.6,145.5z M510.1,488.5c0,23.3-18.9,42.2-42.2,42.2
	l-366.1,0c-23.3,0-42.2-18.9-42.2-42.2V250.8c0-23.3,18.9-42.2,42.2-42.2h366.1c23.3,0,42.2,18.9,42.2,42.2V488.5z M590.3,462.6
	c-14,0-25.4-11.3-25.4-25.4s11.3-25.4,25.4-25.4s25.4,11.3,25.4,25.4C615.7,451.2,604.3,462.6,590.3,462.6z M590.3,327.4
	c-14,0-25.4-11.3-25.4-25.4s11.3-25.4,25.4-25.4s25.4,11.3,25.4,25.4S604.3,327.4,590.3,327.4z"/>
</svg>
